# xmcd
# 
# Track frame offsets:
#     150
#     16679
#     31672
#     48927
#     60346
#     84092
#     103527
#     118450
#     137037
#     164337
#     178944
#     196711
#     222515
#     236471
#     252401
#     266595
#     277563
#     294423
#     303479
# 
# Disc length: 4358
# 
# Revision: 1
# Processed by: cddbd v1.5.2PL0 Copyright (c) Steve Scherf et al.
# Submitted via: fre:ac v1.0.27
# 
DISCID=fc110413
DTITLE=Travis - The Man Who [B-Sides] [Disc 2]
DYEAR=1999
DGENRE=Alternative Rock/Britpop
TTITLE0=Green Behind The Ears [Bonus Track]
TTITLE1=Only Molly Knows [Bonus Track]
TTITLE2=Yeah Yeah Yeah Yeah [Bonus Track]
TTITLE3=High As A Kite [Bonus Track]
TTITLE4=Be My Baby [Bonus Track]
TTITLE5=Where Is The Love [Bonus Track]
TTITLE6=Village Man [Bonus Track]
TTITLE7=Driftwood [Live] [Bonus Track]
TTITLE8=The Urge For Going [Bonus Track]
TTITLE9=Slide Show [Live] [Bonus Track]
TTITLE10=River [Bonus Track]
TTITLE11=Days Of Our Lives [Bonus Track]
TTITLE12=We Are Monkeys [Bonus Track]
TTITLE13=Baby One More Time (In Session) [Bonus Track]
TTITLE14=Coming Around [Bonus Track]
TTITLE15=Just The Faces Change [Bonus Track]
TTITLE16=The Connection [Bonus Track]
TTITLE17=Rock 'n' (Salad) Roll [Bonus Track]
TTITLE18=The Weight [Bonus Track]
EXTD=20th Anniversary Edition. 2017. 
EXTT0=
EXTT1=
EXTT2=
EXTT3=
EXTT4=
EXTT5=
EXTT6=
EXTT7=
EXTT8=
EXTT9=
EXTT10=
EXTT11=
EXTT12=
EXTT13=
EXTT14=
EXTT15=
EXTT16=
EXTT17=
EXTT18=
PLAYORDER=
